<?xml version="1.0" encoding="UTF-8"?>
<svg version="1.1" xmlns="http://www.w3.org/2000/svg" width="192" height="192">
<path d="M0 0 C21.17025368 16.38894469 36.07420937 38.39598446 39.87109375 65.22265625 C41.86698729 93.60087359 37.01626151 119.14327706 18.3046875 141.3125 C2.12082269 159.87540169 -20.24013244 173.68317751 -45.27734375 175.4440918 C-74.51062385 176.4416477 -99.09547407 170.93747007 -121.31640625 150.91015625 C-139.22929826 134.14977459 -151.61588833 111.59730701 -152.46484375 86.71875 C-152.84662879 57.0855552 -146.00461057 32.82134496 -124.96484375 11.03515625 C-91.74981745 -21.9053657 -38.50962312 -27.11871696 0 0 Z " fill="#F1F3F6" transform="translate(152.12890625,16.77734375)"/>
<path d="M0 0 C2.86038822 2.5576524 4.62684063 5.46923189 6.58984375 8.75 C6.93039291 9.31574738 7.27094208 9.88149475 7.62181091 10.46438599 C8.35155602 11.67733636 9.07943053 12.89141375 9.80560303 14.10650635 C11.71652796 17.30319678 13.64172689 20.49126578 15.56640625 23.6796875 C15.94853271 24.31333221 16.33065918 24.94697693 16.72436523 25.599823 C19.87591221 30.81679873 23.10219091 35.98319536 26.375 41.125 C27.31390064 42.60801053 28.25270415 44.09108255 29.19140625 45.57421875 C30.65187357 47.8794307 32.11648629 50.18168999 33.58935547 52.47900391 C35.17544845 54.95795909 36.74521337 57.44662478 38.3125 59.9375 C38.79960449 60.6898291 39.28670898 61.4421582 39.78857422 62.21728516 C40.22572754 62.91772949 40.66288086 63.61817383 41.11328125 64.33984375 C41.50298096 64.95206787 41.89268066 65.56429199 42.29418945 66.19506836 C43 68 43 68 42.98046875 70.00097656 C41.46697215 73.08676096 39.17418498 73.9959691 36.19921875 75.64453125 C35.60760452 75.97740646 35.0159903 76.31028168 34.40644836 76.65324402 C32.50672743 77.71868666 30.59764761 78.76588673 28.6875 79.8125 C26.82601528 80.84859798 24.9665894 81.88832498 23.10720825 82.92819214 C21.87852538 83.61316867 20.64795052 84.29476255 19.41549683 84.97293091 C16.41886889 86.62496738 13.45867327 88.31135518 10.54541016 90.10693359 C9.48499512 90.7561377 8.42458008 91.4053418 7.33203125 92.07421875 C6.39721924 92.66162842 5.46240723 93.24903809 4.49926758 93.85424805 C2 95 2 95 -0.11108398 94.79711914 C-3.50028108 93.3668841 -6.67766833 91.55761212 -9.875 89.75 C-11.03104736 89.10248779 -11.03104736 89.10248779 -12.21044922 88.44189453 C-22.23533049 82.79208543 -32.11885997 76.89640544 -42 71 C-41.44184441 67.41954104 -40.57122579 64.91199852 -38.59375 61.8828125 C-38.10205322 61.1192041 -37.61035645 60.3555957 -37.10375977 59.56884766 C-36.57451904 58.76237793 -36.04527832 57.9559082 -35.5 57.125 C-34.39317463 55.40712331 -33.28771765 53.68836424 -32.18359375 51.96875 C-31.63815918 51.12183594 -31.09272461 50.27492187 -30.53076172 49.40234375 C-28.47752317 46.18003636 -26.50925198 42.91237911 -24.5625 39.625 C-16.62270765 26.26920081 -8.41290146 13.06294153 0 0 Z " fill="#303131" transform="translate(97,27)"/>
<path d="M0 0 C6.66489953 3.61137728 13.30627109 7.26474462 19.9375 10.9375 C20.7116626 11.36442139 21.4858252 11.79134277 22.28344727 12.23120117 C25.78069143 14.16895805 29.2506816 16.12620896 32.6484375 18.234375 C33.69257812 18.87890625 34.73671875 19.5234375 35.8125 20.1875 C36.70582031 20.75855469 37.59914062 21.32960938 38.51953125 21.91796875 C41.61717389 23.26922389 42.77757119 22.90126754 46 22 C48.60904151 20.73758251 48.60904151 20.73758251 51.24609375 19.12109375 C52.24253906 18.53279785 53.23898438 17.94450195 54.265625 17.33837891 C55.31234375 16.71108887 56.3590625 16.08379883 57.4375 15.4375 C59.59217715 14.1623028 61.74712412 12.88756138 63.90234375 11.61328125 C65.46637939 10.68443115 65.46637939 10.68443115 67.06201172 9.73681641 C70.85363371 7.49536727 74.67009221 5.3002064 78.5 3.125 C80.12421875 2.20074219 80.12421875 2.20074219 81.78125 1.2578125 C82.5134375 0.84273438 83.245625 0.42765625 84 0 C84 4.00754519 82.03684293 5.83626809 79.625 8.8125 C78.69848252 9.98537186 77.7740659 11.15990582 76.8515625 12.3359375 C76.3762207 12.94147461 75.90087891 13.54701172 75.41113281 14.17089844 C73.1980812 17.03944215 71.09403479 19.98146043 69 22.9375 C68.58758057 23.51870605 68.17516113 24.09991211 67.75024414 24.69873047 C66.9146285 25.87805952 66.07974777 27.05790964 65.24560547 28.23828125 C63.19175275 31.14314233 61.12834276 34.04115743 59.0625 36.9375 C58.6598291 37.50218994 58.2571582 38.06687988 57.84228516 38.64868164 C52.95939046 45.4795294 47.98013176 52.2398972 43 59 C39.34239017 55.51625543 36.403996 51.97456276 33.5 47.8125 C32.6203568 46.56210224 31.74011886 45.31212273 30.859375 44.0625 C30.39595703 43.4025 29.93253906 42.7425 29.45507812 42.0625 C26.91347082 38.45989957 24.33174937 34.88638991 21.75 31.3125 C20.9461084 30.1972998 20.9461084 30.1972998 20.12597656 29.05957031 C17.14282719 24.9302728 14.13340128 20.82228547 11.09375 16.734375 C10.45211914 15.87030029 9.81048828 15.00622559 9.14941406 14.1159668 C7.90490561 12.44291874 6.65697881 10.77240679 5.40527344 9.10473633 C4.84356445 8.3495874 4.28185547 7.59443848 3.703125 6.81640625 C3.20458008 6.15068604 2.70603516 5.48496582 2.19238281 4.79907227 C1 3 1 3 0 0 Z " fill="#828384" transform="translate(55,106)"/>
<path d="M0 0 C2 2 2 2 2.20254517 4.10073853 C2.18033905 4.96677704 2.15813293 5.83281555 2.13525391 6.72509766 C2.11508209 7.70596344 2.09491028 8.68682922 2.0741272 9.69741821 C2.02583267 11.28965714 2.02583267 11.28965714 1.9765625 12.9140625 C1.93902359 14.54122696 1.93902359 14.54122696 1.90072632 16.20126343 C1.81835928 19.67615234 1.72183383 23.15048699 1.625 26.625 C1.56677756 28.97653964 1.50947394 31.32810222 1.453125 33.6796875 C1.3127557 39.45343379 1.16075128 45.2267872 1 51 C-0.58387805 51.79740694 -2.16839401 52.59354691 -3.75317383 53.38916016 C-4.63548172 53.83264801 -5.51778961 54.27613586 -6.42683411 54.73306274 C-9.80134623 56.39455497 -13.22824356 57.90061439 -16.6875 59.375 C-22.95728271 62.07509785 -29.15349589 64.9034394 -35.3034668 67.86669922 C-39.78683726 70 -39.78683726 70 -42 70 C-40.5811515 66.15228268 -38.7858407 62.79738457 -36.6484375 59.30078125 C-35.96958496 58.18630615 -35.29073242 57.07183105 -34.59130859 55.92358398 C-33.85266534 54.71981183 -33.11389267 53.51611907 -32.375 52.3125 C-31.61381691 51.06665753 -30.85291594 49.82064265 -30.09228516 48.57446289 C-28.1232906 45.35118429 -26.14924091 42.13103582 -24.17333984 38.9119873 C-23.03004481 37.04895879 -21.88787719 35.18524428 -20.74609375 33.32128906 C-13.91005143 22.16311671 -7.0564011 11.02071703 0 0 Z " fill="#818283" transform="translate(97,27)"/>
<path d="M0 0 C0.33 14.52 0.66 29.04 1 44 C-3.42600678 42.8934983 -6.94362686 40.97260262 -10.875 38.75 C-11.64569824 38.3183252 -12.41639648 37.88665039 -13.21044922 37.44189453 C-23.23533049 31.79208543 -33.11885997 25.89640544 -43 20 C-40.33853062 17.89042228 -37.79701358 16.31612219 -34.69140625 14.94921875 C-33.86777588 14.58320557 -33.04414551 14.21719238 -32.19555664 13.84008789 C-31.32664795 13.45973389 -30.45773926 13.07937988 -29.5625 12.6875 C-27.7601816 11.8885509 -25.95809847 11.08907086 -24.15625 10.2890625 C-23.27710937 9.90008789 -22.39796875 9.51111328 -21.4921875 9.11035156 C-17.18019667 7.18921772 -12.90541386 5.19014682 -8.62890625 3.19140625 C-1.58688525 0 -1.58688525 0 0 0 Z " fill="#353636" transform="translate(98,78)"/>
<path d="M0 0 C30.37377406 13.14420632 30.37377406 13.14420632 42 19 C39.47911891 21.83177011 36.65360217 23.4959045 33.37109375 25.36328125 C32.25283203 26.00330078 31.13457031 26.64332031 29.98242188 27.30273438 C28.80090531 27.97287503 27.61926403 28.64279584 26.4375 29.3125 C24.14405897 30.62026586 21.85108364 31.92884878 19.55859375 33.23828125 C18.45112793 33.86814941 17.34366211 34.49801758 16.20263672 35.14697266 C12.41924338 37.33602247 8.70379376 39.62416195 5.00805664 41.95776367 C3 43 3 43 0 43 C0 28.81 0 14.62 0 0 Z " fill="#141414" transform="translate(98,78)"/>
<path d="M0 0 C0 4.00754519 -1.96315707 5.83626809 -4.375 8.8125 C-5.30151748 9.98537186 -6.2259341 11.15990582 -7.1484375 12.3359375 C-7.6237793 12.94147461 -8.09912109 13.54701172 -8.58886719 14.17089844 C-10.80191287 17.03943446 -12.90613053 19.98135101 -15 22.9375 C-15.41096924 23.51725586 -15.82193848 24.09701172 -16.24536133 24.69433594 C-17.07935422 25.87231223 -17.91276889 27.0506981 -18.74560547 28.22949219 C-20.00268819 30.00379423 -21.26743451 31.77234909 -22.53515625 33.5390625 C-23.16260742 34.41389282 -23.16260742 34.41389282 -23.80273438 35.30639648 C-24.63574086 36.46760107 -25.46906886 37.6285751 -26.30273438 38.78930664 C-28.42671671 41.75774867 -30.51569635 44.74460675 -32.55859375 47.76953125 C-32.96907959 48.37466553 -33.37956543 48.9797998 -33.80249023 49.60327148 C-34.93655667 51.28113491 -36.06228115 52.96462786 -37.1875 54.6484375 C-38.0846875 55.81246094 -38.0846875 55.81246094 -39 57 C-39.66 57 -40.32 57 -41 57 C-41.32359485 52.44746089 -41.55809751 47.90169597 -41.71411133 43.34033203 C-41.77915148 41.79324796 -41.86763807 40.24695322 -41.98071289 38.70263672 C-42.34869794 33.54418569 -42.38061373 29.01614227 -41 24 C-37.21903077 20.10190173 -32.91594068 18.18891484 -28 16 C-25.94626842 14.84807386 -23.90385162 13.67567097 -21.875 12.48046875 C-19.91812593 11.38021307 -17.95980299 10.28253011 -16 9.1875 C-14.02051058 8.07739824 -12.04133262 6.96674088 -10.0625 5.85546875 C-9.20785156 5.37746826 -8.35320312 4.89946777 -7.47265625 4.40698242 C-4.95774036 2.97595356 -2.47541706 1.49814765 0 0 Z " fill="#333434" transform="translate(139,106)"/>
</svg>
